Coordinates
version=1
nRows=11
nColumns=42
inDegrees=yes

Units are S.I. units (second, meters, Newtons, ...)
If the header above contains a line with 'inDegrees', this indicates whether rotational values are in degrees (yes) or radians (no).

endheader
time	pelvis_tilt	pelvis_list	pelvis_rotation	pelvis_tx	pelvis_ty	pelvis_tz	hip_flexion_r	hip_adduction_r	hip_rotation_r	knee_angle_r	knee_angle_r_beta	ankle_angle_r	subtalar_angle_r	mtp_angle_r	hip_flexion_l	hip_adduction_l	hip_rotation_l	knee_angle_l	knee_angle_l_beta	ankle_angle_l	subtalar_angle_l	mtp_angle_l	lumbar_extension	lumbar_bending	lumbar_rotation	sh_tx_r	sh_ty_r	sh_tz_r	sh_plane_elev_r	sh_elev_r	sh_axial_rot_r	elbow_flex_r	pro_sup_r	sh_tx_l	sh_ty_l	sh_tz_l	sh_plane_elev_l	sh_elev_l	sh_axial_rot_l	elbow_flex_l	pro_sup_l
      2.76666670	     -0.54871049	     -2.44176763	      9.82451832	     -0.11873295	      1.03760530	     -0.01515781	     26.11306564	      2.05823722	      1.87424509	      8.27627202	      0.14444820	    -13.00822274	    -13.91796044	     -7.49999987	    -17.88647261	     -0.07368071	     25.18933076	      3.37369937	      0.05888216	      6.42391837	    -18.39410805	     -7.49999987	     -4.44149743	      3.33170225	    -22.21559522	      0.01770484	     -0.00239763	     -0.00673788	      2.85079132	      2.70283070	      6.41118766	     14.79897825	     99.03592028	      0.00661805	      0.01998258	     -0.00398207	    -18.82157816	      5.23756156	     -3.85747276	     57.02408069	     75.98264557
      2.78333330	     -0.69926457	     -2.11805497	     10.01380449	     -0.09312721	      1.03456024	     -0.01548534	     26.28365193	      1.50375080	      1.91240815	      6.83873876	      0.11935851	    -13.80060533	    -13.27392073	     -7.49999987	    -18.82529872	      0.21901056	     25.11287241	      4.19891764	      0.07328494	      6.56611484	    -18.23811666	     -7.49999987	     -4.55036332	      3.05512539	    -22.36217948	      0.01449793	     -0.00543897	     -0.00677582	      2.86119801	      2.78988375	      6.45492840	     14.82584543	     98.86627222	      0.00283661	      0.01821485	     -0.00397420	    -18.70254882	      5.07479645	     -3.83578244	     57.16263563	     75.90990811
      2.80000000	     -0.09639179	     -2.07494822	     10.39193599	     -0.06659324	      1.03131747	     -0.01603847	     25.53900196	      1.36987351	      1.44189744	      6.02082832	      0.10508328	    -14.21672193	    -13.04751406	     -7.49999987	    -20.22169948	      0.05024298	     24.47568741	      5.54301811	      0.09674392	      7.26882787	    -17.03904483	     -7.49999987	     -5.78922742	      3.36544981	    -22.58221540	      0.01044272	     -0.00428864	     -0.00671523	      2.72246810	      2.85235275	      6.72750781	     15.31200130	     98.48323130	     -0.00349799	      0.01990588	     -0.00409541	    -18.90673474	      4.75811396	     -3.96014951	     57.94513178	     75.78082547
      2.81666670	      0.06542734	     -2.00719826	     10.68076481	     -0.03497025	      1.02717829	     -0.01828714	     25.30683275	      1.25493772	      1.16322456	      6.12108811	      0.10683314	    -14.20849814	    -13.23747284	     -7.49999987	    -20.90883262	      0.05288852	     23.97799873	      7.33527747	      0.12802474	      7.56116305	    -16.51145373	     -7.49999987	     -6.32826426	      3.53938279	    -22.50159683	      0.00595789	     -0.00198981	     -0.00671213	      2.62529570	      3.05578451	      6.88707032	     15.73852196	     98.00046561	     -0.00924061	      0.02223783	     -0.00432612	    -18.89952145	      4.22923069	     -4.00169528	     58.05310220	     75.59731442
      2.83333330	      0.10396233	     -1.98549752	     10.77306582	     -0.00175736	      1.02400016	     -0.02180097	     25.20416059	      1.31035594	      0.93817879	      6.92090594	      0.12079260	    -13.61132621	    -13.50822176	     -7.49999987	    -21.20380923	      0.11446156	     23.10238315	      9.52881058	      0.16630912	      7.55389449	    -16.05246814	     -7.49999987	     -6.57854780	      3.71456953	    -22.38365760	      0.00444795	     -0.00124865	     -0.00664494	      2.64901118	      3.39056474	      6.94370043	     16.48238052	     97.43694314	     -0.01363569	      0.02189452	     -0.00453533	    -18.56950391	      3.73535553	     -3.84442272	     57.91465813	     75.38869366
      2.85000000	      0.52141486	     -2.10110751	     10.77229059	      0.02390194	      1.01928544	     -0.02318661	     24.40067968	      1.76178571	      1.13379380	      7.73178609	      0.13494512	    -13.56169889	    -14.93649943	     -7.49999987	    -21.65050394	     -0.11298515	     21.44103001	     12.04128746	      0.21016011	      8.57780510	    -13.48753195	     -7.49999987	     -6.98430382	      3.91960384	    -21.18268609	      0.00344473	      0.00151202	     -0.00667096	     -1.64446857	      3.29425384	      8.97879185	     17.57944312	     97.82397702	     -0.01190190	      0.02460588	     -0.00464748	    -21.43448140	      2.72037011	     -1.35368735	     57.29829263	     75.70259671
      2.86666670	      0.61588192	     -2.24128708	     10.67201996	      0.04411831	      1.01809037	     -0.02252017	     23.87965158	      2.23664565	      1.17054718	      8.98414072	      0.15680284	    -12.80915596	    -15.89655260	     -7.49999987	    -21.50460118	     -0.26315597	     19.94617252	     14.82546106	      0.25875311	      8.78023022	    -11.84808681	     -7.49999987	     -6.74754065	      4.00108953	    -20.41414357	      0.00635782	      0.00282487	     -0.00665453	     -1.53631112	      3.21091558	      8.45531459	     18.03041786	     97.85423432	     -0.00844468	      0.02473285	     -0.00475862	    -21.13233638	      2.50733548	     -1.22915719	     56.13752912	     75.66254980
      2.88333330	      0.73638131	     -2.41011828	     10.48297322	      0.06811486	      1.01820350	     -0.02070230	     23.21098588	      2.82166603	      1.28091677	     10.41255413	      0.18173335	    -11.84169109	    -17.01955787	     -7.49999987	    -21.09856154	     -0.46237682	     18.29432570	     17.92267582	      0.31280970	      8.91139391	    -10.06439750	     -7.49999987	     -6.55127626	      4.08848046	    -19.27229697	      0.00761466	      0.00378487	     -0.00663659	     -0.89291575	      2.99194026	      7.77946069	     18.31818498	     95.69692415	     -0.00487604	      0.02451413	     -0.00486732	    -19.94562518	      2.56410208	     -1.46412519	     54.74093522	     74.44349965
      2.90000000	      0.93836647	     -2.48784471	     10.25363109	      0.09988874	      1.01971944	     -0.01998781	     22.34896802	      3.32458613	      1.19043633	     11.94839554	      0.20853884	    -10.29586252	    -17.41462013	     -7.49999987	    -20.51636411	     -0.50105515	     17.07365246	     21.28452636	      0.37148506	      8.39982784	     -9.61945933	     -7.49999987	     -7.04924728	      4.29389231	    -18.72860624	      0.00595669	      0.00307665	     -0.00658582	     -0.64590381	      2.98660257	      7.71780314	     19.32384840	     95.11583716	     -0.01123016	      0.02204089	     -0.00520211	    -19.49807875	      2.51078352	     -1.36124074	     53.98473411	     74.17505186
      2.91666670	      1.40837627	     -2.52630316	      9.85863464	      0.13278945	      1.02630613	     -0.01904583	     20.96072209	      3.96333077	      1.51676499	     13.21301046	      0.23061054	     -9.15869701	    -18.44508949	     -7.49999987	    -19.86146911	     -0.69597308	     15.05769583	     25.03132341	      0.43687901	      9.15516516	     -6.93190503	     -7.49999987	     -7.56616719	      4.44467921	    -16.75272349	      0.00016384	     -0.00094763	     -0.00650576	     -2.14552835	      3.30353594	      6.72407438	     19.74348751	     97.98272823	     -0.01205513	      0.01780578	     -0.00547141	    -17.18061142	      1.98003579	     -2.40435183	     50.98727039	     73.26931561
      2.93333330	      1.79140045	     -2.42044386	      9.44386043	      0.16310227	      1.03097693	     -0.01552815	     19.44366071	      4.39973896	      1.68051294	     14.24144211	      0.24856006	     -7.60523054	    -18.70486557	     -7.49999987	    -18.84613124	     -0.63242028	     13.67884410	     28.95897051	      0.50542938	      9.30578158	     -5.89103838	     -7.49999987	     -8.21980658	      4.39896009	    -15.68307356	     -0.00313332	     -0.00437820	     -0.00640968	     -2.09299630	      3.58379381	      6.74014487	     20.65451374	     97.42776840	     -0.01757744	      0.01378488	     -0.00580688	    -16.70498580	      1.58689385	     -2.46431948	     48.74878023	     72.97525219
